HIERARCHY
ROOT pelvis
{
  OFFSET 0 100 0
  CHANNELS 6 Xposition Yposition Zposition Zrotation Xrotation Yrotation
  JOINT pelvis_right_femur
  {
    OFFSET -10.78128 -3.44521 -0.5502486
    CHANNELS 3 Zrotation Xrotation Yrotation
    JOINT right_femur_tibia
    {
      OFFSET -0.8047443 -44.0398 -0.1307829
      CHANNELS 3 Zrotation Xrotation Yrotation
      JOINT right_tibia_foot
      {
        OFFSET 3.006224 -47.83518 -5
        CHANNELS 3 Zrotation Xrotation Yrotation
        End Site
        {
          OFFSET 0 -5 15
        }
      }
    }
  }
  JOINT pelvis_left_femur
  {
    OFFSET 10.78128 -3.44521 -0.5502486
    CHANNELS 3 Zrotation Xrotation Yrotation
    JOINT left_femur_tibia
    {
      OFFSET 0.8047443 -44.0398 -0.1307829
      CHANNELS 3 Zrotation Xrotation Yrotation
      JOINT left_tibia_foot
      {
        OFFSET -4.370144 -48.10324 -4.275266
        CHANNELS 3 Zrotation Xrotation Yrotation
        End Site
        {
          OFFSET 0 -5 15
        }
      }
    }
  }
  JOINT pelvis_spine1
  {
    OFFSET 0 6.468898 -3.129235
    CHANNELS 3 Zrotation Xrotation Yrotation
    JOINT spine1
    {
      OFFSET 0 23.15396 4.99043
      CHANNELS 3 Zrotation Xrotation Yrotation
      JOINT spine2
      {
        OFFSET 0 20.79997 -5.064912
        CHANNELS 3 Zrotation Xrotation Yrotation
        JOINT neck
        {
          OFFSET 0 14.38658 9.616178
          CHANNELS 3 Zrotation Xrotation Yrotation
          End Site
          {
            OFFSET 0 20 0
          }
        }
      }
      JOINT right_manubrium
      {
        OFFSET -5.722621 16.35077 3.967754
        CHANNELS 3 Zrotation Xrotation Yrotation
        JOINT right_clavicle
        {
          OFFSET -13.16364 1.694482 -4.693211
          CHANNELS 3 Zrotation Xrotation Yrotation
          JOINT right_humerus
          {
            OFFSET -28.5034 -0.3100689 -2.792744
            CHANNELS 3 Zrotation Xrotation Yrotation
            JOINT right_radius
            {
              OFFSET -25.15693 0.02248979 -1.271978
              CHANNELS 3 Zrotation Xrotation Yrotation
              End Site
              {
                OFFSET -15 0 0
              }
            }
          }
        }
      }
      JOINT left_manubrium
      {
        OFFSET 5.722621 16.35077 3.967754
        CHANNELS 3 Zrotation Xrotation Yrotation
        JOINT left_clavicle
        {
          OFFSET 13.16364 1.694482 -4.693211
          CHANNELS 3 Zrotation Xrotation Yrotation
          JOINT left_humerus
          {
            OFFSET 29.39168 -1.063119 -2.237045
            CHANNELS 3 Zrotation Xrotation Yrotation
            JOINT left_radius
            {
              OFFSET 24.59957 -0.9528479 0.9047498
              CHANNELS 3 Zrotation Xrotation Yrotation
              End Site
              {
                OFFSET 15 -0 -0
              }
            }
          }
        }
      }
    }
  }
}
MOTION
Frames: 21
Frame Time: 0.0416666666667
0 103.5113 0 0.4474753 -1.461411 -0.3289844 4.093159 -16.33402 10.39968 -0 42.50176 -0 -6.589312 -16.28924 -3.529889 -6.5548 9.955794 -22.11623 -0 6.756313 -0 12.342 -12.9198 28.70823 -3.59014 -3.879289 4.494132 2.685331 10.88338 -8.099538 0.9984845 21.56928 6.789201 3.342823 -23.73931 8.819098 7.567451 -20.07544 12.25151 84.75285 37.44463 -17.78028 -0 0 16.88917 -7.925187 8.165653 4.406182 5.777368 -20.11011 -1.859297 -92.22028 20.73849 20.30262 0 0 -12.48287 13.42456 15.01027 -2.424498
0.2967303 104.2588 1.532866 0.3939736 -1.332559 -0.6019124 3.989107 -17.38022 9.822254 -0 41.92007 -0 -6.995376 -15.60128 -3.453904 -6.482146 10.12385 -21.65262 -0 6.201071 -0 12.21819 -13.32663 28.00069 -3.614276 -3.678197 4.302719 2.727132 10.84002 -8.203782 0.9450384 21.59366 6.77139 3.338644 -23.74144 8.692461 7.420688 -19.92477 12.20804 84.99023 37.29045 -17.96918 -0 0 16.37148 -8.113322 8.058484 4.664409 5.83135 -20.38182 -1.946719 -91.66879 20.69201 19.61957 0 0 -13.12583 13.60416 14.89739 -2.553708
0.6044263 104.7087 3.312564 0.1834591 -0.4347781 -0.7814659 4.308454 -20.84441 8.852593 -0 37.05093 -0 -6.687016 -14.51371 -2.949773 -6.385143 10.12361 -21.0224 -0 5.509119 -0 11.33544 -15.56069 26.75195 -3.447705 -3.228997 4.449063 2.76904 10.4397 -8.164676 1.16311 21.31262 6.800288 3.3828 -24.37152 8.978771 6.826498 -19.78147 11.95331 85.16811 36.30773 -18.22364 -0 0 16.30784 -8.415233 8.282808 4.723003 6.523087 -20.79704 -1.623979 -91.50573 20.63976 19.14427 0 0 -14.39104 13.99138 15.1201 -2.832416
0.9111869 104.9068 5.326988 0.01563941 0.3744631 -0.8679319 4.683534 -23.64967 8.155341 -0 32.73094 -0 -6.317069 -13.47718 -2.558132 -6.313126 10.30619 -20.58568 -0 5.311058 -0 10.22038 -17.6636 25.70719 -3.305727 -2.891233 4.58163 2.808297 10.01842 -8.115603 1.36986 21.05854 6.847046 3.458415 -24.93539 9.247366 6.346831 -19.60702 11.70156 85.3122 35.49222 -18.54356 -0 0 16.27707 -8.55868 8.491268 4.656705 7.101447 -21.05664 -1.287372 -91.61411 21.03509 18.98996 0 0 -15.48252 13.75266 15.47469 -2.446161
1.206806 104.8786 7.658592 -0.1616931 1.224479 -0.8400952 5.103465 -26.55564 7.36333 -0 28.27507 -0 -6.094128 -11.92519 -2.132706 -6.216506 10.70602 -19.97354 -0 5.418505 -0 8.846686 -19.83413 24.43739 -3.158692 -2.549831 4.644524 2.852139 9.588752 -8.095078 1.544861 20.76752 6.924449 3.603037 -25.46462 9.448976 5.889888 -19.32361 11.43394 85.52472 34.73451 -18.98918 -0 0 16.04712 -8.758797 8.686488 4.567493 7.709185 -21.38307 -0.9555304 -91.64023 21.37732 18.70721 0 0 -16.677 13.44755 15.77926 -2.051205
1.48081 104.6736 10.38411 -0.3577398 2.076144 -0.6774355 5.585374 -29.33228 6.571168 -0 24.06478 -0 -6.062959 -9.903692 -1.709696 -6.090054 11.3405 -19.2283 -0 5.975267 -0 7.163809 -21.90264 22.93803 -2.994552 -2.229818 4.61574 2.899288 9.163049 -8.109912 1.668364 20.44566 7.036747 3.820789 -25.92801 9.558345 5.509808 -18.92964 11.1645 85.78551 34.12371 -19.55361 -0 0 15.63664 -8.963842 8.848611 4.4378 8.282317 -21.72941 -0.6505311 -91.63129 21.74051 18.38289 0 0 -17.87563 12.9458 16.01394 -1.502345
1.722079 104.3548 13.60391 -0.5909119 2.873591 -0.3593791 6.110536 -31.86846 5.742018 -0 20.31512 -0 -6.320196 -7.397153 -1.2918 -5.909653 12.25197 -18.2816 -0 7.110242 -0 5.110967 -23.66693 21.07932 -2.784323 -1.925148 4.446629 2.944364 8.755969 -8.16973 1.712175 20.10814 7.184811 4.111043 -26.25978 9.52867 5.213913 -18.38983 10.90088 86.12391 33.679 -20.2395 -0 0 14.96749 -9.206284 8.952803 4.289304 8.779269 -22.10035 -0.4271957 -91.49416 22.04144 17.91761 0 0 -19.0601 12.29639 16.10034 -0.8769379
1.922681 104.0092 17.41945 -0.8852857 3.535512 0.1198176 6.678935 -33.87855 4.923973 -0 17.37147 -0 -6.911511 -4.607868 -0.8975762 -5.648426 13.40149 -17.13928 -0 9.051353 -0 2.674783 -24.78522 18.81397 -2.476691 -1.647959 4.111909 2.978932 8.387393 -8.27215 1.653472 19.77994 7.364263 4.453639 -26.40243 9.333674 5.019201 -17.70251 10.66027 86.54126 33.43396 -21.00862 -0 0 14.0434 -9.488127 8.996122 4.134914 9.119507 -22.44794 -0.3442093 -91.20809 22.23718 17.31885 0 0 -20.1181 11.51361 15.97587 -0.196627
2.081137 103.7504 21.90953 -1.264733 3.950219 0.733645 7.281607 -34.9646 4.187739 -0 15.58475 -0 -7.833413 -1.973607 -0.564383 -5.269704 14.62751 -15.84694 -0 12.11022 -0 -0.04505434 -24.79282 16.18008 -2.000529 -1.412319 3.613692 2.99236 8.085915 -8.402837 1.478954 19.5082 7.556076 4.796397 -26.30796 8.969905 4.919362 -16.90076 10.46797 87.03127 33.38772 -21.77972 -0 0 12.91762 -9.818042 9.00478 4.010961 9.193242 -22.69536 -0.4707715 -90.77307 22.28732 16.63357 0 0 -20.89569 10.65019 15.5937 0.4996475
2.205934 103.716 27.08496 -1.738198 4.003257 1.402781 7.89464 -34.66798 3.638601 -0 15.17658 -0 -8.984235 -0.1848595 -0.3669678 -4.735839 15.54902 -14.52225 -0 16.67643 -0 -2.759299 -23.21725 13.389 -1.287531 -1.229884 3.0238 2.974708 7.891281 -8.527958 1.205367 19.35929 7.718788 5.049775 -25.98349 8.4864 4.876007 -16.08394 10.3583 87.55897 33.49003 -22.41479 -0 0 11.74159 -10.20077 9.056794 3.980011 8.883343 -22.73994 -0.8513815 -90.26105 22.20179 16.01264 0 0 -21.20481 9.785901 14.97021 1.19737
2.314015 104.0507 32.84086 -2.266472 3.615963 1.987025 8.441996 -32.64486 3.364638 -0 16.0066 -0 -10.16158 0.04361023 -0.4126977 -4.040658 15.55639 -13.32856 -0 23.1431 -0 -5.021718 -19.86632 10.82123 -0.3395212 -1.090404 2.51182 2.918993 7.851722 -8.590491 0.9014632 19.40894 7.783754 5.107819 -25.51368 7.991335 4.816597 -15.41012 10.36453 88.05789 33.6315 -22.74465 -0 0 10.73955 -10.63937 9.274547 4.117201 8.132108 -22.50344 -1.455646 -89.816 22.07102 15.68324 0 0 -20.89653 9.018273 14.22799 1.91943
2.421635 104.868 38.94411 -2.720008 2.779712 2.314932 8.766956 -28.88358 3.365821 -0 17.44276 -0 -11.14477 -1.525557 -0.7672246 -3.275279 13.99359 -12.38787 -0 31.69164 -0 -6.43905 -15.18119 8.903196 0.675152 -0.9393958 2.321701 2.818159 8.009744 -8.513947 0.6870375 19.7144 7.671964 4.917933 -25.01813 7.604967 4.677073 -15.0268 10.49774 88.43988 33.69993 -22.63723 -0 0 10.10544 -11.1345 9.753892 4.452969 7.032425 -22.01403 -2.142175 -89.60468 22.03107 15.83031 0 0 -19.9484 8.435339 13.58506 2.691971
2.531829 106.1981 45.09238 -2.87413 1.543883 2.261381 8.665879 -23.77619 3.508304 -0 18.55369 -0 -11.81971 -4.241661 -1.347694 -2.655826 10.53516 -11.67914 -0 41.88324 -0 -6.930491 -10.29935 7.952657 1.395515 -0.6776302 2.65502 2.65524 8.364892 -8.218164 0.6756226 20.28389 7.342059 4.565924 -24.51777 7.357642 4.469991 -14.95839 10.72643 88.61233 33.68604 -22.05812 -0 0 9.865652 -11.68561 10.43517 4.910113 5.859453 -21.448 -2.709094 -89.70774 22.13677 16.41584 0 0 -18.50804 8.077712 13.23812 3.454276
2.629377 107.945 51.02066 -2.515487 -0.01516261 1.832582 8.016078 -17.93233 3.566416 -0 18.57372 -0 -12.20346 -6.868374 -1.920743 -2.393411 5.442951 -11.04613 -0 52.24108 -0 -6.779976 -6.553318 8.104292 1.438437 -0.2088358 3.520693 2.402256 8.829043 -7.650525 0.8801311 21.06318 6.844484 4.268536 -23.84965 7.135847 4.295102 -15.08085 10.98576 88.46783 33.72431 -21.02881 -0 0 9.887441 -12.29325 11.04436 5.336443 4.962101 -21.03226 -3.022728 -90.04624 22.27799 17.14937 0 0 -16.83831 7.898543 13.2075 4.0433
2.690291 109.8833 56.57918 -1.631987 -1.767751 1.177918 6.920473 -11.91908 3.346656 -0 17.2522 -0 -12.3767 -8.527886 -2.243793 -2.469805 -0.5976585 -10.3045 -0 60.34331 -0 -6.408922 -4.715817 9.268459 0.6966845 0.4911431 4.687992 2.04664 9.234533 -6.830606 1.175231 21.945 6.318649 4.221577 -22.80513 6.7701 4.243343 -15.2612 11.21731 87.87045 33.97054 -19.51502 -0 0 10.07836 -12.96636 11.23459 5.657914 4.566261 -20.86192 -3.094227 -90.44724 22.27799 17.72238 0 0 -15.19655 7.762393 13.31198 4.339896
2.703809 111.706 61.74688 -0.4949039 -3.471675 0.4906618 5.716714 -6.148826 2.799921 -0 14.84495 -0 -12.4365 -9.313319 -2.215328 -2.573297 -6.865368 -9.317651 -0 63.72832 -0 -6.077392 -4.651296 11.1276 -0.5289841 1.345643 5.795993 1.625712 9.421624 -5.877408 1.374125 22.79217 5.911859 4.440292 -21.37923 6.184389 4.292939 -15.51115 11.39668 86.70662 34.42566 -17.41126 -0 0 10.53557 -13.72223 10.82585 5.991217 4.654086 -20.82872 -3.025431 -90.79184 22.05531 18.06888 0 0 -13.72759 7.518383 13.31411 4.404819
2.690361 113.1094 66.60678 0.4852502 -4.801512 -0.1208985 4.796265 -0.8812198 2.024088 -0 11.87126 -0 -12.45715 -9.998772 -1.899607 -2.290421 -12.81751 -8.024485 -0 61.08173 -0 -5.783956 -5.582741 13.25473 -1.718702 2.199513 6.532099 1.223846 9.329114 -4.976055 1.350778 23.47082 5.689261 4.753349 -19.83443 5.453963 4.317227 -15.9687 11.52254 84.98375 34.89963 -14.6704 -0 0 11.45386 -14.56182 9.90371 6.577651 5.015213 -20.72368 -2.90197 -91.07124 21.65724 18.36052 0 0 -12.43545 7.10146 13.07684 4.421539
2.693308 113.8811 71.30937 0.9985426 -5.483613 -0.6652273 4.376678 3.768561 1.181314 -0 8.861879 -0 -12.44653 -11.30805 -1.438059 -1.388094 -18.07356 -6.479528 -0 52.86265 -0 -5.380381 -6.624448 15.28387 -2.458529 2.858771 6.764869 0.9275221 9.009445 -4.29479 1.106812 23.88868 5.609317 4.9309 -18.53335 4.745124 4.179775 -16.74795 11.58599 82.88917 35.13503 -11.4441 -0 0 12.91411 -15.45144 8.728214 7.617063 5.402415 -20.38601 -2.731643 -91.32105 21.18029 18.79139 0 0 -11.23939 6.574466 12.60825 4.533664
2.750604 113.9514 76.0317 0.9795301 -5.430211 -1.19936 4.401885 7.820669 0.4243606 -0 6.242674 -0 -12.34197 -13.41104 -0.9514378 0.01942154 -22.35342 -4.89712 -0 41.08572 -0 -4.730425 -7.189435 17.00456 -2.635827 3.142784 6.575191 0.7762312 8.579837 -3.909509 0.7584106 24.02424 5.567766 4.821154 -17.73551 4.221558 3.813568 -17.82011 11.55289 80.75198 34.95428 -8.091674 -0 0 14.77309 -16.34979 7.592644 9.150058 5.659213 -19.77483 -2.454328 -91.55432 20.69718 19.40563 0 0 -10.04655 6.081201 12.0215 4.756144
2.878084 113.3942 80.94289 0.5926851 -4.783769 -1.76543 4.605739 11.38953 -0.1330454 -0 4.368718 -0 -12.0399 -15.87124 -0.4895556 1.505395 -25.48483 -3.633885 -0 28.5211 -0 -3.814857 -7.124974 18.36048 -2.415917 2.953643 6.190832 0.7402053 8.161435 -3.776228 0.47275 23.92946 5.469286 4.415966 -17.50215 3.986861 3.237308 -19.01062 11.37723 78.92062 34.31791 -5.041976 -0 0 16.73053 -17.25524 6.726714 11.03911 5.753775 -18.94754 -2.004095 -91.76629 20.24567 20.10287 0 0 -8.782422 5.748913 11.47057 5.014659
3.078148 112.3914 86.18666 0.1162054 -3.857783 -2.383004 4.657138 14.6061 -0.4248513 -0 3.618899 -0 -11.43952 -17.89065 -0.03061527 2.528907 -27.43193 -3.067502 -0 17.74989 -0 -2.762716 -6.622949 19.38875 -2.085925 2.324458 5.868069 0.7327887 7.841556 -3.759827 0.3903133 23.70161 5.282529 3.840742 -17.71605 4.066357 2.534715 -20.08381 11.03712 77.64019 33.29287 -2.628596 -0 0 18.48222 -18.21243 6.237111 13.02105 5.738549 -18.00328 -1.381997 -91.97227 19.85189 20.76081 0 0 -7.398996 5.609308 11.08272 5.243748
